<svg width="167" height="75" viewBox="0 0 167 75" fill="none" xmlns="http://www.w3.org/2000/svg">
<g filter="url(#filter0_f_309_141)">
<path d="M118.333 25.0084C117.918 25.0965 117.547 25.3996 117.301 25.851C117.055 26.3024 116.954 26.8652 117.02 27.4156C117.086 27.9659 117.314 28.4588 117.654 28.7856C117.994 29.1125 118.418 29.2467 118.833 29.1587H123.521L123.802 30.1962L125.084 35.384L126.365 40.5718C126.49 41.1114 127.022 41.6094 127.428 41.6094H138.368C138.805 41.6094 139.305 41.1114 139.43 40.5718L141.962 30.1962C142.087 29.6567 141.899 29.1587 141.462 29.1587H127.584L126.397 26.1705C126.27 25.8275 126.075 25.5375 125.832 25.3325C125.589 25.1275 125.309 25.0153 125.021 25.0084L118.77 25.0084C118.677 24.9972 118.582 24.9972 118.489 25.0084C118.426 25.0034 118.364 25.0034 118.301 25.0084L118.333 25.0084ZM128.209 45.7596C127.334 45.7596 126.647 46.6727 126.647 47.8347C126.647 48.9968 127.334 49.9099 128.209 49.9099C129.085 49.9099 129.772 48.9968 129.772 47.8347C129.772 46.6727 129.085 45.7596 128.209 45.7596ZM137.586 45.7596C136.711 45.7596 136.023 46.6727 136.023 47.8347C136.023 48.9968 136.711 49.9099 137.586 49.9099C138.461 49.9099 139.149 48.9968 139.149 47.8347C139.149 46.6727 138.461 45.7596 137.586 45.7596Z" fill="white"/>
<path d="M37.5 37.4549C41.4453 37.4549 44.6429 34.6672 44.6429 31.2275C44.6429 27.7878 41.4453 25 37.5 25C33.5547 25 30.3571 27.7878 30.3571 31.2275C30.3571 34.6672 33.5547 37.4549 37.5 37.4549ZM42.5 39.0118H41.5681C40.3292 39.5081 38.9509 39.7902 37.5 39.7902C36.0491 39.7902 34.6763 39.5081 33.4319 39.0118H32.5C28.3594 39.0118 25 41.9407 25 45.5506V47.5746C25 48.8639 26.1998 49.9099 27.6786 49.9099H47.3214C48.8002 49.9099 50 48.8639 50 47.5746V45.5506C50 41.9407 46.6406 39.0118 42.5 39.0118Z" fill="white"/>
</g>
<defs>
<filter id="filter0_f_309_141" x="0" y="0" width="167" height="74.9099" filterUnits="userSpaceOnUse" color-interpolation-filters="sRGB">
<feFlood flood-opacity="0" result="BackgroundImageFix"/>
<feBlend mode="normal" in="SourceGraphic" in2="BackgroundImageFix" result="shape"/>
<feGaussianBlur stdDeviation="12.5" result="effect1_foregroundBlur_309_141"/>
</filter>
</defs>
</svg>
