<svg width="31" height="30" viewBox="0 0 31 30" fill="none" xmlns="http://www.w3.org/2000/svg">
<g clip-path="url(#clip0_243_54)">
<path d="M30.9985 15C30.9985 6.71572 24.2828 0 15.9985 0C7.71426 0 0.998535 6.71572 0.998535 15C0.998535 22.4868 6.48379 28.6925 13.6548 29.8178V19.3359H9.84619V15H13.6548V11.6953C13.6548 7.93594 15.8942 5.85938 19.3205 5.85938C20.9611 5.85938 22.6782 6.15234 22.6782 6.15234V9.84375H20.7868C18.9235 9.84375 18.3423 11.0001 18.3423 12.1875V15H22.5024L21.8374 19.3359H18.3423V29.8178C25.5133 28.6925 30.9985 22.4868 30.9985 15Z" fill="white"/>
</g>
<defs>
<clipPath id="clip0_243_54">
<rect width="29.9999" height="30" fill="white" transform="translate(0.998535)"/>
</clipPath>
</defs>
</svg>
