<svg width="31" height="30" viewBox="0 0 31 30" fill="none" xmlns="http://www.w3.org/2000/svg">
<g clip-path="url(#clip0_596_134)">
<path d="M30.9987 15C30.9987 6.71572 24.2829 0 15.9987 0C7.71438 0 0.998657 6.71572 0.998657 15C0.998657 22.4868 6.48391 28.6925 13.6549 29.8178V19.3359H9.84631V15H13.6549V11.6953C13.6549 7.93594 15.8944 5.85938 19.3206 5.85938C20.9613 5.85938 22.6783 6.15234 22.6783 6.15234V9.84375H20.7869C18.9237 9.84375 18.3424 11.0001 18.3424 12.1875V15H22.5026L21.8375 19.3359H18.3424V29.8178C25.5134 28.6925 30.9987 22.4868 30.9987 15Z" fill="white"/>
</g>
<defs>
<clipPath id="clip0_596_134">
<rect width="29.9999" height="30" fill="white" transform="translate(0.998657)"/>
</clipPath>
</defs>
</svg>
