<svg width="30" height="35" viewBox="0 0 30 35" fill="none" xmlns="http://www.w3.org/2000/svg">
<g clip-path="url(#clip0_321_498)">
<path d="M29.999 17.4536C29.999 8.28142 23.2833 0.845947 14.999 0.845947C6.71473 0.845947 -0.000976562 8.28142 -0.000976562 17.4536C-0.000976562 25.7428 5.48427 32.6135 12.6552 33.8594V22.2542H8.84666V17.4536H12.6552V13.7947C12.6552 9.63241 14.8947 7.3333 18.321 7.3333C19.9616 7.3333 21.6787 7.65766 21.6787 7.65766V11.7447H19.7873C17.924 11.7447 17.3427 13.025 17.3427 14.3396V17.4536H21.5029L20.8378 22.2542H17.3427V33.8594C24.5137 32.6135 29.999 25.7428 29.999 17.4536Z" fill="white"/>
</g>
<defs>
<clipPath id="clip0_321_498">
<rect width="29.9999" height="33.2152" fill="white" transform="translate(-0.000976562 0.845947)"/>
</clipPath>
</defs>
</svg>
