<svg width="31" height="30" viewBox="0 0 31 30" fill="none" xmlns="http://www.w3.org/2000/svg">
<g clip-path="url(#clip0_243_56)">
<path d="M15.9985 2.70117C20.0063 2.70117 20.481 2.71875 22.0571 2.78906C23.522 2.85352 24.313 3.09961 24.8403 3.30469C25.5376 3.57422 26.0415 3.90234 26.563 4.42383C27.0903 4.95117 27.4126 5.44922 27.6821 6.14648C27.8872 6.67383 28.1333 7.4707 28.1978 8.92969C28.2681 10.5117 28.2856 10.9863 28.2856 14.9883C28.2856 18.9961 28.2681 19.4707 28.1978 21.0469C28.1333 22.5117 27.8872 23.3027 27.6821 23.8301C27.4126 24.5273 27.0845 25.0313 26.563 25.5527C26.0356 26.0801 25.5376 26.4023 24.8403 26.6719C24.313 26.877 23.5161 27.123 22.0571 27.1875C20.4751 27.2578 20.0005 27.2754 15.9985 27.2754C11.9907 27.2754 11.5161 27.2578 9.93994 27.1875C8.4751 27.123 7.68408 26.877 7.15674 26.6719C6.45947 26.4023 5.95557 26.0742 5.43408 25.5527C4.90674 25.0254 4.58447 24.5273 4.31494 23.8301C4.10986 23.3027 3.86377 22.5059 3.79932 21.0469C3.729 19.4648 3.71143 18.9902 3.71143 14.9883C3.71143 10.9805 3.729 10.5059 3.79932 8.92969C3.86377 7.46484 4.10986 6.67383 4.31494 6.14648C4.58447 5.44922 4.9126 4.94531 5.43408 4.42383C5.96143 3.89648 6.45947 3.57422 7.15674 3.30469C7.68408 3.09961 8.48096 2.85352 9.93994 2.78906C11.5161 2.71875 11.9907 2.70117 15.9985 2.70117ZM15.9985 0C11.9263 0 11.4165 0.0175781 9.8169 0.0878906C8.22315 0.158203 7.12744 0.416016 6.17822 0.785156C5.18799 1.17187 4.3501 1.68164 3.51807 2.51953C2.68018 3.35156 2.17041 4.18945 1.78369 5.17383C1.41455 6.12891 1.15674 7.21875 1.08643 8.8125C1.01611 10.418 0.998535 10.9277 0.998535 15C0.998535 19.0723 1.01611 19.582 1.08643 21.1816C1.15674 22.7754 1.41455 23.8711 1.78369 24.8203C2.17041 25.8105 2.68018 26.6484 3.51807 27.4805C4.3501 28.3125 5.18799 28.8281 6.17236 29.209C7.12744 29.5781 8.21729 29.8359 9.81104 29.9062C11.4106 29.9766 11.9204 29.9941 15.9927 29.9941C20.0649 29.9941 20.5747 29.9766 22.1743 29.9062C23.7681 29.8359 24.8638 29.5781 25.813 29.209C26.7974 28.8281 27.6353 28.3125 28.4673 27.4805C29.2993 26.6484 29.8149 25.8105 30.1958 24.8262C30.5649 23.8711 30.8228 22.7813 30.8931 21.1875C30.9634 19.5879 30.981 19.0781 30.981 15.0059C30.981 10.9336 30.9634 10.4238 30.8931 8.82422C30.8228 7.23047 30.5649 6.13477 30.1958 5.18555C29.8267 4.18945 29.3169 3.35156 28.479 2.51953C27.647 1.6875 26.8091 1.17188 25.8247 0.791016C24.8696 0.421875 23.7798 0.164063 22.186 0.09375C20.5806 0.0175781 20.0708 0 15.9985 0Z" fill="white"/>
<path d="M15.9985 7.29492C11.7446 7.29492 8.29346 10.7461 8.29346 15C8.29346 19.2539 11.7446 22.7051 15.9985 22.7051C20.2524 22.7051 23.7036 19.2539 23.7036 15C23.7036 10.7461 20.2524 7.29492 15.9985 7.29492ZM15.9985 19.998C13.2388 19.998 11.0005 17.7598 11.0005 15C11.0005 12.2402 13.2388 10.002 15.9985 10.002C18.7583 10.002 20.9966 12.2402 20.9966 15C20.9966 17.7598 18.7583 19.998 15.9985 19.998Z" fill="white"/>
<path d="M25.8071 6.99024C25.8071 7.98633 24.9985 8.78907 24.0083 8.78907C23.0122 8.78907 22.2095 7.98047 22.2095 6.99024C22.2095 5.99414 23.0181 5.19141 24.0083 5.19141C24.9985 5.19141 25.8071 6 25.8071 6.99024Z" fill="white"/>
</g>
<defs>
<clipPath id="clip0_243_56">
<rect width="29.9999" height="30" fill="white" transform="translate(0.998535)"/>
</clipPath>
</defs>
</svg>
