<svg width="31" height="30" viewBox="0 0 31 30" fill="none" xmlns="http://www.w3.org/2000/svg">
<g clip-path="url(#clip0_596_136)">
<path d="M15.9987 2.70117C20.0065 2.70117 20.4811 2.71875 22.0573 2.78906C23.5221 2.85352 24.3131 3.09961 24.8405 3.30469C25.5377 3.57422 26.0416 3.90234 26.5631 4.42383C27.0905 4.95117 27.4127 5.44922 27.6823 6.14648C27.8873 6.67383 28.1334 7.4707 28.1979 8.92969C28.2682 10.5117 28.2858 10.9863 28.2858 14.9883C28.2858 18.9961 28.2682 19.4707 28.1979 21.0469C28.1334 22.5117 27.8873 23.3027 27.6823 23.8301C27.4127 24.5273 27.0846 25.0313 26.5631 25.5527C26.0358 26.0801 25.5377 26.4023 24.8405 26.6719C24.3131 26.877 23.5162 27.123 22.0573 27.1875C20.4752 27.2578 20.0006 27.2754 15.9987 27.2754C11.9908 27.2754 11.5162 27.2578 9.94006 27.1875C8.47522 27.123 7.6842 26.877 7.15686 26.6719C6.4596 26.4023 5.95569 26.0742 5.4342 25.5527C4.90686 25.0254 4.58459 24.5273 4.31506 23.8301C4.10999 23.3027 3.86389 22.5059 3.79944 21.0469C3.72913 19.4648 3.71155 18.9902 3.71155 14.9883C3.71155 10.9805 3.72913 10.5059 3.79944 8.92969C3.86389 7.46484 4.10999 6.67383 4.31506 6.14648C4.58459 5.44922 4.91272 4.94531 5.4342 4.42383C5.96155 3.89648 6.4596 3.57422 7.15686 3.30469C7.6842 3.09961 8.48108 2.85352 9.94006 2.78906C11.5162 2.71875 11.9908 2.70117 15.9987 2.70117ZM15.9987 0C11.9264 0 11.4166 0.0175781 9.81702 0.0878906C8.22327 0.158203 7.12756 0.416016 6.17834 0.785156C5.18811 1.17187 4.35022 1.68164 3.51819 2.51953C2.6803 3.35156 2.17053 4.18945 1.78381 5.17383C1.41467 6.12891 1.15686 7.21875 1.08655 8.8125C1.01624 10.418 0.998657 10.9277 0.998657 15C0.998657 19.0723 1.01624 19.582 1.08655 21.1816C1.15686 22.7754 1.41467 23.8711 1.78381 24.8203C2.17053 25.8105 2.6803 26.6484 3.51819 27.4805C4.35022 28.3125 5.18811 28.8281 6.17249 29.209C7.12756 29.5781 8.21741 29.8359 9.81116 29.9062C11.4108 29.9766 11.9205 29.9941 15.9928 29.9941C20.0651 29.9941 20.5748 29.9766 22.1744 29.9062C23.7682 29.8359 24.8639 29.5781 25.8131 29.209C26.7975 28.8281 27.6354 28.3125 28.4674 27.4805C29.2994 26.6484 29.8151 25.8105 30.1959 24.8262C30.5651 23.8711 30.8229 22.7813 30.8932 21.1875C30.9635 19.5879 30.9811 19.0781 30.9811 15.0059C30.9811 10.9336 30.9635 10.4238 30.8932 8.82422C30.8229 7.23047 30.5651 6.13477 30.1959 5.18555C29.8268 4.18945 29.317 3.35156 28.4791 2.51953C27.6471 1.6875 26.8092 1.17188 25.8248 0.791016C24.8698 0.421875 23.7799 0.164063 22.1862 0.09375C20.5807 0.0175781 20.0709 0 15.9987 0Z" fill="white"/>
<path d="M15.9987 7.29492C11.7448 7.29492 8.29358 10.7461 8.29358 15C8.29358 19.2539 11.7448 22.7051 15.9987 22.7051C20.2526 22.7051 23.7037 19.2539 23.7037 15C23.7037 10.7461 20.2526 7.29492 15.9987 7.29492ZM15.9987 19.998C13.2389 19.998 11.0006 17.7598 11.0006 15C11.0006 12.2402 13.2389 10.002 15.9987 10.002C18.7584 10.002 20.9967 12.2402 20.9967 15C20.9967 17.7598 18.7584 19.998 15.9987 19.998Z" fill="white"/>
<path d="M25.8073 6.99024C25.8073 7.98633 24.9987 8.78907 24.0084 8.78907C23.0123 8.78907 22.2096 7.98047 22.2096 6.99024C22.2096 5.99414 23.0182 5.19141 24.0084 5.19141C24.9987 5.19141 25.8073 6 25.8073 6.99024Z" fill="white"/>
</g>
<defs>
<clipPath id="clip0_596_136">
<rect width="29.9999" height="30" fill="white" transform="translate(0.998657)"/>
</clipPath>
</defs>
</svg>
