<svg width="30" height="34" viewBox="0 0 30 34" fill="none" xmlns="http://www.w3.org/2000/svg">
<g clip-path="url(#clip0_321_500)">
<path d="M14.999 3.16083C19.0068 3.16083 19.4814 3.1803 21.0576 3.25814C22.5224 3.32951 23.3134 3.60197 23.8408 3.82903C24.538 4.12745 25.0419 4.49074 25.5634 5.06812C26.0908 5.65198 26.413 6.2034 26.6826 6.9754C26.8876 7.55926 27.1337 8.44154 27.1982 10.0569C27.2685 11.8085 27.2861 12.3339 27.2861 16.7648C27.2861 21.2022 27.2685 21.7276 27.1982 23.4727C27.1337 25.0946 26.8876 25.9704 26.6826 26.5542C26.413 27.3262 26.0849 27.8841 25.5634 28.4615C25.0361 29.0454 24.538 29.4022 23.8408 29.7006C23.3134 29.9276 22.5166 30.2001 21.0576 30.2715C19.4756 30.3493 19.0009 30.3688 14.999 30.3688C10.9912 30.3688 10.5166 30.3493 8.94041 30.2715C7.47557 30.2001 6.68456 29.9276 6.15722 29.7006C5.45995 29.4022 4.95605 29.0389 4.43456 28.4615C3.90722 27.8776 3.58495 27.3262 3.31542 26.5542C3.11035 25.9704 2.86425 25.0881 2.7998 23.4727C2.72949 21.7211 2.71191 21.1957 2.71191 16.7648C2.71191 12.3275 2.72949 11.802 2.7998 10.0569C2.86425 8.43505 3.11035 7.55926 3.31542 6.9754C3.58495 6.2034 3.91308 5.64549 4.43456 5.06812C4.9619 4.48425 5.45995 4.12745 6.15722 3.82903C6.68456 3.60197 7.48143 3.32951 8.94041 3.25814C10.5166 3.1803 10.9912 3.16083 14.999 3.16083ZM14.999 0.170166C10.9267 0.170166 10.417 0.189628 8.81737 0.267476C7.22362 0.345324 6.12792 0.630768 5.1787 1.03947C4.18847 1.46764 3.35058 2.03204 2.51855 2.95973C1.68066 3.88093 1.1709 4.80862 0.784178 5.8985C0.415038 6.95593 0.157226 8.16258 0.0869139 9.92714C0.0166015 11.7047 -0.000976562 12.2691 -0.000976562 16.7778C-0.000976562 21.2865 0.0166015 21.8509 0.0869139 23.6219C0.157226 25.3865 0.415038 26.5996 0.784178 27.6506C1.1709 28.7469 1.68066 29.6746 2.51855 30.5958C3.35058 31.517 4.18847 32.0879 5.17284 32.5096C6.12792 32.9183 7.21776 33.2038 8.81151 33.2816C10.4111 33.3594 10.9209 33.3789 14.9931 33.3789C19.0654 33.3789 19.5752 33.3594 21.1748 33.2816C22.7685 33.2038 23.8642 32.9183 24.8134 32.5096C25.7978 32.0879 26.6357 31.517 27.4677 30.5958C28.2998 29.6746 28.8154 28.7469 29.1962 27.6571C29.5654 26.5996 29.8232 25.393 29.8935 23.6284C29.9638 21.8574 29.9814 21.293 29.9814 16.7843C29.9814 12.2756 29.9638 11.7112 29.8935 9.94012C29.8232 8.17556 29.5654 6.96242 29.1962 5.91147C28.8271 4.80862 28.3173 3.88093 27.4794 2.95973C26.6474 2.03852 25.8095 1.46764 24.8251 1.04596C23.8701 0.637255 22.7802 0.351812 21.1865 0.273964C19.581 0.189628 19.0713 0.170166 14.999 0.170166Z" fill="white"/>
<path d="M14.999 8.24695C10.7451 8.24695 7.29395 12.068 7.29395 16.7778C7.29395 21.4876 10.7451 25.3087 14.999 25.3087C19.2529 25.3087 22.7041 21.4876 22.7041 16.7778C22.7041 12.068 19.2529 8.24695 14.999 8.24695ZM14.999 22.3115C12.2392 22.3115 10.001 19.8334 10.001 16.7778C10.001 13.7223 12.2392 11.2441 14.999 11.2441C17.7588 11.2441 19.997 13.7223 19.997 16.7778C19.997 19.8334 17.7588 22.3115 14.999 22.3115Z" fill="white"/>
<path d="M24.8076 7.90947C24.8076 9.01232 23.999 9.90108 23.0088 9.90108C22.0127 9.90108 21.21 9.00583 21.21 7.90947C21.21 6.80661 22.0186 5.91785 23.0088 5.91785C23.999 5.91785 24.8076 6.8131 24.8076 7.90947Z" fill="white"/>
</g>
<defs>
<clipPath id="clip0_321_500">
<rect width="29.9999" height="33.2152" fill="white" transform="translate(-0.000976562 0.170166)"/>
</clipPath>
</defs>
</svg>
