<svg width="31" height="34" viewBox="0 0 31 34" fill="none" xmlns="http://www.w3.org/2000/svg">
<rect width="29.9999" height="33.2152" transform="translate(0.998047 0.100098)" fill="#221D1E"/>
<path d="M7.67767 3.42048L8.29094 2.8072C8.68146 2.41668 9.31463 2.41668 9.70515 2.8072L12.2909 5.39299C12.6815 5.78352 12.6815 6.41668 12.2909 6.8072L10.4985 8.59962C10.1996 8.8985 10.1255 9.3551 10.3146 9.73316C11.4073 11.9187 13.1795 13.6908 15.365 14.7836C15.743 14.9726 16.1996 14.8985 16.4985 14.5996L18.2909 12.8072C18.6815 12.4167 19.3146 12.4167 19.7052 12.8072L22.2909 15.393C22.6815 15.7835 22.6815 16.4167 22.2909 16.8072L21.6777 17.4205C19.5663 19.5318 16.2238 19.7694 13.835 17.9778L12.6266 17.0715C10.8831 15.7639 9.33427 14.2151 8.02662 12.4715L7.12031 11.2631C5.32877 8.87439 5.56632 5.53183 7.67767 3.42048Z" fill="white"/>
</svg>
