<svg width="31" height="30" viewBox="0 0 31 30" fill="none" xmlns="http://www.w3.org/2000/svg">
<rect width="29.9999" height="30" transform="translate(0.997803)" fill="#221D1E"/>
<path d="M7.67742 3.32038L8.2907 2.70711C8.68122 2.31658 9.31438 2.31658 9.70491 2.70711L12.2907 5.29289C12.6812 5.68342 12.6812 6.31658 12.2907 6.70711L10.4983 8.49952C10.1994 8.7984 10.1253 9.255 10.3143 9.63307C11.4071 11.8186 13.1792 13.5907 15.3647 14.6835C15.7428 14.8725 16.1994 14.7984 16.4983 14.4995L18.2907 12.7071C18.6812 12.3166 19.3144 12.3166 19.7049 12.7071L22.2907 15.2929C22.6812 15.6834 22.6812 16.3166 22.2907 16.7071L21.6774 17.3204C19.5661 19.4317 16.2235 19.6693 13.8348 17.8777L12.6264 16.9714C10.8828 15.6638 9.33402 14.115 8.02637 12.3714L7.12007 11.163C5.32852 8.7743 5.56607 5.43173 7.67742 3.32038Z" fill="white"/>
</svg>
